<mxfile host="app.diagrams.net" agent="Mozilla/5.0 (Windows NT 10.0; Win64; x64) AppleWebKit/537.36 (KHTML, like Gecko) Chrome/127.0.0.0 Safari/537.36" version="24.7.7">
  <diagram name="Page-1" id="7NfaADUea7c0sKxQ02cB">
    <mxGraphModel dx="1050" dy="574" grid="1" gridSize="10" guides="1" tooltips="1" connect="1" arrows="1" fold="1" page="1" pageScale="1" pageWidth="850" pageHeight="1100" math="0" shadow="0">
      <root>
        <mxCell id="0" />
        <mxCell id="1" parent="0" />
        <mxCell id="2" value="WebApplication" style="swimlane;fontStyle=1;align=center;verticalAlign=top;childLayout=stackLayout;horizontal=1;startSize=29.149999618530273;horizontalStack=0;resizeParent=1;resizeParentMax=0;resizeLast=0;collapsible=0;marginBottom=0;" parent="1" vertex="1">
          <mxGeometry x="308" y="110" width="239" height="124.14999961853027" as="geometry" />
        </mxCell>
        <mxCell id="3" value="- AzureHosting" style="text;strokeColor=none;fillColor=none;align=left;verticalAlign=top;spacingLeft=4;spacingRight=4;overflow=hidden;rotatable=0;points=[[0,0.5],[1,0.5]];portConstraint=eastwest;" parent="2" vertex="1">
          <mxGeometry y="29.149999618530273" width="239" height="29" as="geometry" />
        </mxCell>
        <mxCell id="4" style="line;strokeWidth=1;fillColor=none;align=left;verticalAlign=middle;spacingTop=-1;spacingLeft=3;spacingRight=3;rotatable=0;labelPosition=right;points=[];portConstraint=eastwest;strokeColor=inherit;" parent="2" vertex="1">
          <mxGeometry y="58.14999961853027" width="239" height="8" as="geometry" />
        </mxCell>
        <mxCell id="5" value="-connectToCustomerDatabase()" style="text;strokeColor=none;fillColor=none;align=left;verticalAlign=top;spacingLeft=4;spacingRight=4;overflow=hidden;rotatable=0;points=[[0,0.5],[1,0.5]];portConstraint=eastwest;" parent="2" vertex="1">
          <mxGeometry y="66.14999961853027" width="239" height="29" as="geometry" />
        </mxCell>
        <mxCell id="6" value="-performDatabaseOperations()" style="text;strokeColor=none;fillColor=none;align=left;verticalAlign=top;spacingLeft=4;spacingRight=4;overflow=hidden;rotatable=0;points=[[0,0.5],[1,0.5]];portConstraint=eastwest;" parent="2" vertex="1">
          <mxGeometry y="95.14999961853027" width="239" height="29" as="geometry" />
        </mxCell>
        <mxCell id="7" value="AzureHosting" style="swimlane;fontStyle=1;align=center;verticalAlign=top;childLayout=stackLayout;horizontal=1;startSize=25.91111077202691;horizontalStack=0;resizeParent=1;resizeParentMax=0;resizeLast=0;collapsible=0;marginBottom=0;" parent="1" vertex="1">
          <mxGeometry x="188" y="303" width="145" height="116.91111077202692" as="geometry" />
        </mxCell>
        <mxCell id="8" value="- resources" style="text;strokeColor=none;fillColor=none;align=left;verticalAlign=top;spacingLeft=4;spacingRight=4;overflow=hidden;rotatable=0;points=[[0,0.5],[1,0.5]];portConstraint=eastwest;" parent="7" vertex="1">
          <mxGeometry y="25.91111077202691" width="145" height="26" as="geometry" />
        </mxCell>
        <mxCell id="9" value="- securityFeatures" style="text;strokeColor=none;fillColor=none;align=left;verticalAlign=top;spacingLeft=4;spacingRight=4;overflow=hidden;rotatable=0;points=[[0,0.5],[1,0.5]];portConstraint=eastwest;" parent="7" vertex="1">
          <mxGeometry y="51.91111077202691" width="145" height="26" as="geometry" />
        </mxCell>
        <mxCell id="10" value="- scaleOptions" style="text;strokeColor=none;fillColor=none;align=left;verticalAlign=top;spacingLeft=4;spacingRight=4;overflow=hidden;rotatable=0;points=[[0,0.5],[1,0.5]];portConstraint=eastwest;" parent="7" vertex="1">
          <mxGeometry y="77.91111077202692" width="145" height="26" as="geometry" />
        </mxCell>
        <mxCell id="11" style="line;strokeWidth=1;fillColor=none;align=left;verticalAlign=middle;spacingTop=-1;spacingLeft=3;spacingRight=3;rotatable=0;labelPosition=right;points=[];portConstraint=eastwest;strokeColor=inherit;" parent="7" vertex="1">
          <mxGeometry y="103.91111077202692" width="145" height="13" as="geometry" />
        </mxCell>
        <mxCell id="12" value="CustomerPremises" style="swimlane;fontStyle=1;align=center;verticalAlign=top;childLayout=stackLayout;horizontal=1;startSize=25.91111077202691;horizontalStack=0;resizeParent=1;resizeParentMax=0;resizeLast=0;collapsible=0;marginBottom=0;" parent="1" vertex="1">
          <mxGeometry x="462" y="303" width="167" height="116.91111077202692" as="geometry" />
        </mxCell>
        <mxCell id="13" value="- databaseServer" style="text;strokeColor=none;fillColor=none;align=left;verticalAlign=top;spacingLeft=4;spacingRight=4;overflow=hidden;rotatable=0;points=[[0,0.5],[1,0.5]];portConstraint=eastwest;" parent="12" vertex="1">
          <mxGeometry y="25.91111077202691" width="167" height="26" as="geometry" />
        </mxCell>
        <mxCell id="14" value="- dataCenterLocation" style="text;strokeColor=none;fillColor=none;align=left;verticalAlign=top;spacingLeft=4;spacingRight=4;overflow=hidden;rotatable=0;points=[[0,0.5],[1,0.5]];portConstraint=eastwest;" parent="12" vertex="1">
          <mxGeometry y="51.91111077202691" width="167" height="26" as="geometry" />
        </mxCell>
        <mxCell id="15" value="- networkSecurity" style="text;strokeColor=none;fillColor=none;align=left;verticalAlign=top;spacingLeft=4;spacingRight=4;overflow=hidden;rotatable=0;points=[[0,0.5],[1,0.5]];portConstraint=eastwest;" parent="12" vertex="1">
          <mxGeometry y="77.91111077202692" width="167" height="26" as="geometry" />
        </mxCell>
        <mxCell id="16" style="line;strokeWidth=1;fillColor=none;align=left;verticalAlign=middle;spacingTop=-1;spacingLeft=3;spacingRight=3;rotatable=0;labelPosition=right;points=[];portConstraint=eastwest;strokeColor=inherit;" parent="12" vertex="1">
          <mxGeometry y="103.91111077202692" width="167" height="13" as="geometry" />
        </mxCell>
        <mxCell id="17" value="" style="curved=1;startArrow=none;endArrow=open;endSize=12;exitX=0.05;exitY=1;entryX=0.5;entryY=0;" parent="1" source="2" target="7" edge="1">
          <mxGeometry relative="1" as="geometry">
            <Array as="points">
              <mxPoint x="260" y="269" />
            </Array>
          </mxGeometry>
        </mxCell>
        <mxCell id="18" value="connectToCustomerDatabase()" style="curved=1;startArrow=none;endArrow=open;endSize=12;exitX=0.5;exitY=1;entryX=0.05;entryY=0;" parent="1" source="2" target="12" edge="1">
          <mxGeometry relative="1" as="geometry">
            <Array as="points">
              <mxPoint x="428" y="269" />
            </Array>
          </mxGeometry>
        </mxCell>
        <mxCell id="19" value="performDatabaseOperations()" style="curved=1;startArrow=none;endArrow=open;endSize=12;exitX=1;exitY=0.89;entryX=0.96;entryY=0;" parent="1" source="2" target="12" edge="1">
          <mxGeometry relative="1" as="geometry">
            <Array as="points">
              <mxPoint x="663" y="269" />
            </Array>
          </mxGeometry>
        </mxCell>
      </root>
    </mxGraphModel>
  </diagram>
</mxfile>
